<svg xmlns="http://www.w3.org/2000/svg" xmlns:xlink="http://www.w3.org/1999/xlink" width="500" zoomAndPan="magnify"
    viewBox="0 0 375 374.999991" height="500" preserveAspectRatio="xMidYMid meet" version="1.0">
    <defs>
        <g />
        <clipPath id="a9629d80c4">
            <path
                d="M 240.253906 184.578125 L 256.605469 184.578125 L 256.605469 201 L 240.253906 201 Z M 240.253906 184.578125 "
                clip-rule="nonzero" />
        </clipPath>
        <clipPath id="346edf06f0">
            <path
                d="M 184.117188 221.734375 L 200.636719 221.734375 L 200.636719 237.976562 L 184.117188 237.976562 Z M 184.117188 221.734375 "
                clip-rule="nonzero" />
        </clipPath>
        <clipPath id="9457446fd9">
            <path d="M 175 87.976562 L 193 87.976562 L 193 105 L 175 105 Z M 175 87.976562 " clip-rule="nonzero" />
        </clipPath>
    </defs>

    <path fill="#80cc28"
        d="M 248.132812 146.867188 L 227.183594 125.933594 L 235.203125 116.179688 C 191.578125 117.964844 174.074219 136.503906 174.074219 136.503906 C 230.757812 114.800781 248.503906 164.808594 248.503906 164.808594 L 248.132812 146.867188 "
        fill-opacity="1" fill-rule="nonzero" />
    <path fill="#80cc28"
        d="M 237.214844 130.003906 C 239.46875 133.890625 244.457031 135.222656 248.355469 132.976562 C 252.257812 130.734375 253.59375 125.765625 251.339844 121.882812 C 249.089844 117.996094 244.101562 116.664062 240.199219 118.910156 C 236.300781 121.152344 234.964844 126.121094 237.214844 130.003906 "
        fill-opacity="1" fill-rule="nonzero" />
    <path fill="#e81067"
        d="M 232.179688 206.609375 L 239.910156 178.074219 L 252.402344 180.113281 C 229.035156 143.382812 204.164062 137.550781 204.164062 137.550781 C 251.375 175.59375 216.769531 215.902344 216.769531 215.902344 L 232.179688 206.609375 "
        fill-opacity="1" fill-rule="nonzero" />
    <g clip-path="url(#a9629d80c4)">
        <path fill="#e81067"
            d="M 241.386719 188.761719 C 239.132812 192.648438 240.472656 197.617188 244.371094 199.859375 C 248.273438 202.101562 253.261719 200.769531 255.511719 196.886719 C 257.765625 193 256.429688 188.035156 252.527344 185.789062 C 248.628906 183.546875 243.640625 184.878906 241.386719 188.761719 "
            fill-opacity="1" fill-rule="nonzero" />
    </g>
    <path fill="#f68712"
        d="M 172.257812 222.722656 L 200.933594 215.125 L 205.40625 226.914062 C 225.664062 188.398438 218.296875 164.027344 218.296875 164.027344 C 208.828125 223.769531 156.472656 214.074219 156.472656 214.074219 L 172.257812 222.722656 "
        fill-opacity="1" fill-rule="nonzero" />
    <g clip-path="url(#346edf06f0)">
        <path fill="#f68712"
            d="M 192.378906 221.742188 C 187.875 221.742188 184.222656 225.378906 184.222656 229.863281 C 184.222656 234.347656 187.875 237.984375 192.378906 237.984375 C 196.882812 237.984375 200.535156 234.347656 200.535156 229.863281 C 200.535156 225.378906 196.882812 221.742188 192.378906 221.742188 "
            fill-opacity="1" fill-rule="nonzero" />
    </g>
    <path fill="#ed1c24"
        d="M 128.285156 179.09375 L 149.230469 200.03125 L 141.214844 209.78125 C 184.835938 207.996094 202.34375 189.457031 202.34375 189.457031 C 145.65625 211.160156 127.910156 161.15625 127.910156 161.15625 L 128.285156 179.09375 "
        fill-opacity="1" fill-rule="nonzero" />
    <path fill="#ed1c24"
        d="M 139.199219 195.957031 C 136.945312 192.074219 131.960938 190.742188 128.058594 192.984375 C 124.15625 195.226562 122.820312 200.195312 125.074219 204.082031 C 127.324219 207.964844 132.3125 209.296875 136.214844 207.054688 C 140.117188 204.8125 141.453125 199.84375 139.199219 195.957031 "
        fill-opacity="1" fill-rule="nonzero" />
    <path fill="#1b619a"
        d="M 144.234375 119.351562 L 136.503906 147.886719 L 124.015625 145.847656 C 147.378906 182.582031 172.25 188.414062 172.25 188.414062 C 125.039062 150.371094 159.648438 110.0625 159.648438 110.0625 L 144.234375 119.351562 "
        fill-opacity="1" fill-rule="nonzero" />
    <path fill="#1b619a"
        d="M 135.027344 137.199219 C 137.28125 133.316406 135.945312 128.347656 132.042969 126.105469 C 128.140625 123.859375 123.152344 125.191406 120.902344 129.078125 C 118.648438 132.960938 119.988281 137.929688 123.886719 140.171875 C 127.789062 142.417969 132.777344 141.085938 135.027344 137.199219 "
        fill-opacity="1" fill-rule="nonzero" />
    <path fill="#00adef"
        d="M 204.160156 103.242188 L 175.480469 110.839844 L 171.007812 99.046875 C 150.75 137.566406 158.117188 161.933594 158.117188 161.933594 C 167.589844 102.191406 219.945312 111.886719 219.945312 111.886719 L 204.160156 103.242188 "
        fill-opacity="1" fill-rule="nonzero" />
    <g clip-path="url(#9457446fd9)">
        <path fill="#00adef"
            d="M 184.035156 104.222656 C 188.539062 104.222656 192.191406 100.585938 192.191406 96.101562 C 192.191406 91.613281 188.539062 87.976562 184.035156 87.976562 C 179.53125 87.976562 175.878906 91.613281 175.878906 96.101562 C 175.878906 100.585938 179.53125 104.222656 184.035156 104.222656 "
            fill-opacity="1" fill-rule="nonzero" />
    </g>
</svg>