<svg xmlns="http://www.w3.org/2000/svg" xmlns:xlink="http://www.w3.org/1999/xlink" width="500" zoomAndPan="magnify" viewBox="0 0 375 374.999991" height="500" preserveAspectRatio="xMidYMid meet" version="1.0"><defs><g/><clipPath id="df755dd53a"><path d="M 240.253906 184.578125 L 256.605469 184.578125 L 256.605469 201 L 240.253906 201 Z M 240.253906 184.578125 " clip-rule="nonzero"/></clipPath><clipPath id="cb427dc38b"><path d="M 184.117188 221.734375 L 200.636719 221.734375 L 200.636719 237.976562 L 184.117188 237.976562 Z M 184.117188 221.734375 " clip-rule="nonzero"/></clipPath><clipPath id="8b15f1510d"><path d="M 175 87.976562 L 193 87.976562 L 193 105 L 175 105 Z M 175 87.976562 " clip-rule="nonzero"/></clipPath></defs><rect x="-37.5" width="450" fill="#ffffff" y="-37.499999" height="449.999989" fill-opacity="1"/><rect x="-37.5" width="450" fill="#ffffff" y="-37.499999" height="449.999989" fill-opacity="1"/><g fill="#333333" fill-opacity="1"><g transform="translate(124.803271, 270.60051)"><g><path d="M 11.296875 -8.28125 C 11.929688 -7.894531 12.410156 -7.40625 12.734375 -6.8125 C 13.066406 -6.226562 13.234375 -5.550781 13.234375 -4.78125 C 13.234375 -4.0625 13.0625 -3.382812 12.71875 -2.75 C 12.375 -2.125 11.882812 -1.570312 11.25 -1.09375 C 10.675781 -0.65625 10.019531 -0.316406 9.28125 -0.078125 C 8.550781 0.148438 7.773438 0.273438 6.953125 0.296875 C 6.140625 0.296875 5.363281 0.179688 4.625 -0.046875 C 3.882812 -0.273438 3.226562 -0.613281 2.65625 -1.0625 C 1.789062 -1.71875 1.203125 -2.503906 0.890625 -3.421875 L 4.0625 -4.890625 C 4.0625 -4.742188 4.113281 -4.554688 4.21875 -4.328125 C 4.320312 -4.097656 4.488281 -3.878906 4.71875 -3.671875 C 4.945312 -3.460938 5.238281 -3.28125 5.59375 -3.125 C 5.957031 -2.976562 6.40625 -2.90625 6.9375 -2.90625 C 7.363281 -2.90625 7.738281 -2.957031 8.0625 -3.0625 C 8.382812 -3.164062 8.65625 -3.296875 8.875 -3.453125 C 9.09375 -3.617188 9.257812 -3.800781 9.375 -4 C 9.488281 -4.207031 9.546875 -4.414062 9.546875 -4.625 C 9.546875 -4.863281 9.460938 -5.085938 9.296875 -5.296875 C 9.140625 -5.515625 8.894531 -5.679688 8.5625 -5.796875 C 7.957031 -6.015625 7.316406 -6.191406 6.640625 -6.328125 C 5.972656 -6.472656 5.320312 -6.65625 4.6875 -6.875 C 4.050781 -7.09375 3.460938 -7.382812 2.921875 -7.75 C 2.378906 -8.113281 1.945312 -8.617188 1.625 -9.265625 C 1.34375 -9.847656 1.203125 -10.460938 1.203125 -11.109375 C 1.203125 -11.835938 1.367188 -12.539062 1.703125 -13.21875 C 2.046875 -13.894531 2.515625 -14.46875 3.109375 -14.9375 C 3.660156 -15.375 4.285156 -15.707031 4.984375 -15.9375 C 5.679688 -16.175781 6.414062 -16.296875 7.1875 -16.296875 C 7.957031 -16.296875 8.691406 -16.179688 9.390625 -15.953125 C 10.097656 -15.734375 10.734375 -15.40625 11.296875 -14.96875 C 11.835938 -14.550781 12.265625 -14.070312 12.578125 -13.53125 L 10 -11.765625 C 9.675781 -12.203125 9.273438 -12.550781 8.796875 -12.8125 C 8.328125 -13.082031 7.796875 -13.21875 7.203125 -13.21875 C 6.390625 -13.21875 5.757812 -13.035156 5.3125 -12.671875 C 4.863281 -12.304688 4.640625 -11.832031 4.640625 -11.25 C 4.640625 -10.976562 4.765625 -10.734375 5.015625 -10.515625 C 5.265625 -10.304688 5.585938 -10.117188 5.984375 -9.953125 C 6.390625 -9.785156 6.84375 -9.632812 7.34375 -9.5 C 7.84375 -9.375 8.335938 -9.25 8.828125 -9.125 C 9.316406 -9 9.78125 -8.867188 10.21875 -8.734375 C 10.65625 -8.597656 11.015625 -8.445312 11.296875 -8.28125 Z M 11.296875 -8.28125 "/></g></g></g><g fill="#333333" fill-opacity="1"><g transform="translate(139.830015, 270.60051)"><g><path d="M 6.875 -11.25 C 7.289062 -11.25 7.753906 -11.1875 8.265625 -11.0625 C 8.785156 -10.9375 9.269531 -10.707031 9.71875 -10.375 C 10.175781 -10.050781 10.5625 -9.59375 10.875 -9 C 11.1875 -8.40625 11.34375 -7.640625 11.34375 -6.703125 L 11.34375 0 L 8.1875 0 L 8.1875 -6.59375 C 8.1875 -6.945312 8.128906 -7.242188 8.015625 -7.484375 C 7.898438 -7.722656 7.75 -7.914062 7.5625 -8.0625 C 7.375 -8.207031 7.15625 -8.3125 6.90625 -8.375 C 6.664062 -8.445312 6.425781 -8.484375 6.1875 -8.484375 C 5.988281 -8.484375 5.769531 -8.445312 5.53125 -8.375 C 5.300781 -8.3125 5.082031 -8.203125 4.875 -8.046875 C 4.675781 -7.898438 4.507812 -7.703125 4.375 -7.453125 C 4.238281 -7.210938 4.171875 -6.925781 4.171875 -6.59375 L 4.171875 0 L 1.046875 0 L 1.046875 -11.25 L 3.71875 -11.25 L 4.171875 -10.390625 C 4.535156 -10.640625 4.941406 -10.84375 5.390625 -11 C 5.847656 -11.164062 6.34375 -11.25 6.875 -11.25 Z M 6.875 -11.25 "/></g></g></g><g fill="#333333" fill-opacity="1"><g transform="translate(153.156944, 270.60051)"><g><path d="M 12.78125 -11.25 L 12.78125 0 L 10.09375 0 L 9.765625 -1.203125 C 9.328125 -0.609375 8.800781 -0.210938 8.1875 -0.015625 C 7.582031 0.171875 6.945312 0.265625 6.28125 0.265625 C 5.476562 0.265625 4.738281 0.113281 4.0625 -0.1875 C 3.394531 -0.5 2.8125 -0.921875 2.3125 -1.453125 C 1.8125 -1.992188 1.421875 -2.625 1.140625 -3.34375 C 0.859375 -4.0625 0.71875 -4.828125 0.71875 -5.640625 C 0.71875 -6.460938 0.859375 -7.226562 1.140625 -7.9375 C 1.421875 -8.65625 1.8125 -9.285156 2.3125 -9.828125 C 2.8125 -10.367188 3.394531 -10.789062 4.0625 -11.09375 C 4.738281 -11.40625 5.476562 -11.5625 6.28125 -11.5625 C 7.007812 -11.5625 7.675781 -11.445312 8.28125 -11.21875 C 8.882812 -10.988281 9.378906 -10.628906 9.765625 -10.140625 L 10.09375 -11.25 Z M 9.65625 -5.59375 C 9.65625 -6.1875 9.578125 -6.679688 9.421875 -7.078125 C 9.265625 -7.484375 9.050781 -7.8125 8.78125 -8.0625 C 8.519531 -8.3125 8.210938 -8.492188 7.859375 -8.609375 C 7.503906 -8.722656 7.117188 -8.78125 6.703125 -8.78125 C 6.296875 -8.78125 5.914062 -8.695312 5.5625 -8.53125 C 5.207031 -8.363281 4.894531 -8.140625 4.625 -7.859375 C 4.351562 -7.578125 4.140625 -7.242188 3.984375 -6.859375 C 3.835938 -6.472656 3.765625 -6.066406 3.765625 -5.640625 C 3.765625 -5.203125 3.835938 -4.796875 3.984375 -4.421875 C 4.140625 -4.046875 4.351562 -3.71875 4.625 -3.4375 C 4.894531 -3.15625 5.207031 -2.929688 5.5625 -2.765625 C 5.914062 -2.597656 6.296875 -2.515625 6.703125 -2.515625 C 7.523438 -2.515625 8.21875 -2.765625 8.78125 -3.265625 C 9.351562 -3.773438 9.644531 -4.550781 9.65625 -5.59375 Z M 9.65625 -5.59375 "/></g></g></g><g fill="#333333" fill-opacity="1"><g transform="translate(168.00238, 270.60051)"><g><path d="M 7.53125 -11.5625 C 8.332031 -11.5625 9.070312 -11.40625 9.75 -11.09375 C 10.425781 -10.789062 11.007812 -10.367188 11.5 -9.828125 C 12 -9.285156 12.382812 -8.65625 12.65625 -7.9375 C 12.9375 -7.226562 13.078125 -6.460938 13.078125 -5.640625 C 13.078125 -4.828125 12.9375 -4.0625 12.65625 -3.34375 C 12.382812 -2.625 12 -1.992188 11.5 -1.453125 C 11.007812 -0.921875 10.425781 -0.5 9.75 -0.1875 C 9.070312 0.113281 8.332031 0.265625 7.53125 0.265625 C 6.875 0.265625 6.234375 0.148438 5.609375 -0.078125 C 4.992188 -0.316406 4.515625 -0.613281 4.171875 -0.96875 L 4.171875 4.484375 L 1.046875 4.484375 L 1.046875 -11.25 L 3.71875 -11.25 L 4.171875 -10.46875 C 4.609375 -10.863281 5.097656 -11.144531 5.640625 -11.3125 C 6.191406 -11.476562 6.820312 -11.5625 7.53125 -11.5625 Z M 7.125 -2.515625 C 7.53125 -2.515625 7.910156 -2.597656 8.265625 -2.765625 C 8.617188 -2.929688 8.925781 -3.15625 9.1875 -3.4375 C 9.457031 -3.71875 9.671875 -4.046875 9.828125 -4.421875 C 9.984375 -4.796875 10.0625 -5.203125 10.0625 -5.640625 C 10.0625 -6.066406 9.984375 -6.472656 9.828125 -6.859375 C 9.671875 -7.242188 9.457031 -7.578125 9.1875 -7.859375 C 8.925781 -8.140625 8.617188 -8.363281 8.265625 -8.53125 C 7.910156 -8.695312 7.53125 -8.78125 7.125 -8.78125 C 6.707031 -8.78125 6.320312 -8.722656 5.96875 -8.609375 C 5.613281 -8.492188 5.300781 -8.3125 5.03125 -8.0625 C 4.769531 -7.8125 4.5625 -7.484375 4.40625 -7.078125 C 4.257812 -6.679688 4.1875 -6.203125 4.1875 -5.640625 C 4.1875 -5.117188 4.257812 -4.664062 4.40625 -4.28125 C 4.5625 -3.894531 4.769531 -3.566406 5.03125 -3.296875 C 5.300781 -3.035156 5.613281 -2.835938 5.96875 -2.703125 C 6.320312 -2.578125 6.707031 -2.515625 7.125 -2.515625 Z M 7.125 -2.515625 "/></g></g></g><g fill="#333333" fill-opacity="1"><g transform="translate(182.462515, 270.60051)"><g><path d="M 11.296875 -8.28125 C 11.929688 -7.894531 12.410156 -7.40625 12.734375 -6.8125 C 13.066406 -6.226562 13.234375 -5.550781 13.234375 -4.78125 C 13.234375 -4.0625 13.0625 -3.382812 12.71875 -2.75 C 12.375 -2.125 11.882812 -1.570312 11.25 -1.09375 C 10.675781 -0.65625 10.019531 -0.316406 9.28125 -0.078125 C 8.550781 0.148438 7.773438 0.273438 6.953125 0.296875 C 6.140625 0.296875 5.363281 0.179688 4.625 -0.046875 C 3.882812 -0.273438 3.226562 -0.613281 2.65625 -1.0625 C 1.789062 -1.71875 1.203125 -2.503906 0.890625 -3.421875 L 4.0625 -4.890625 C 4.0625 -4.742188 4.113281 -4.554688 4.21875 -4.328125 C 4.320312 -4.097656 4.488281 -3.878906 4.71875 -3.671875 C 4.945312 -3.460938 5.238281 -3.28125 5.59375 -3.125 C 5.957031 -2.976562 6.40625 -2.90625 6.9375 -2.90625 C 7.363281 -2.90625 7.738281 -2.957031 8.0625 -3.0625 C 8.382812 -3.164062 8.65625 -3.296875 8.875 -3.453125 C 9.09375 -3.617188 9.257812 -3.800781 9.375 -4 C 9.488281 -4.207031 9.546875 -4.414062 9.546875 -4.625 C 9.546875 -4.863281 9.460938 -5.085938 9.296875 -5.296875 C 9.140625 -5.515625 8.894531 -5.679688 8.5625 -5.796875 C 7.957031 -6.015625 7.316406 -6.191406 6.640625 -6.328125 C 5.972656 -6.472656 5.320312 -6.65625 4.6875 -6.875 C 4.050781 -7.09375 3.460938 -7.382812 2.921875 -7.75 C 2.378906 -8.113281 1.945312 -8.617188 1.625 -9.265625 C 1.34375 -9.847656 1.203125 -10.460938 1.203125 -11.109375 C 1.203125 -11.835938 1.367188 -12.539062 1.703125 -13.21875 C 2.046875 -13.894531 2.515625 -14.46875 3.109375 -14.9375 C 3.660156 -15.375 4.285156 -15.707031 4.984375 -15.9375 C 5.679688 -16.175781 6.414062 -16.296875 7.1875 -16.296875 C 7.957031 -16.296875 8.691406 -16.179688 9.390625 -15.953125 C 10.097656 -15.734375 10.734375 -15.40625 11.296875 -14.96875 C 11.835938 -14.550781 12.265625 -14.070312 12.578125 -13.53125 L 10 -11.765625 C 9.675781 -12.203125 9.273438 -12.550781 8.796875 -12.8125 C 8.328125 -13.082031 7.796875 -13.21875 7.203125 -13.21875 C 6.390625 -13.21875 5.757812 -13.035156 5.3125 -12.671875 C 4.863281 -12.304688 4.640625 -11.832031 4.640625 -11.25 C 4.640625 -10.976562 4.765625 -10.734375 5.015625 -10.515625 C 5.265625 -10.304688 5.585938 -10.117188 5.984375 -9.953125 C 6.390625 -9.785156 6.84375 -9.632812 7.34375 -9.5 C 7.84375 -9.375 8.335938 -9.25 8.828125 -9.125 C 9.316406 -9 9.78125 -8.867188 10.21875 -8.734375 C 10.65625 -8.597656 11.015625 -8.445312 11.296875 -8.28125 Z M 11.296875 -8.28125 "/></g></g></g><g fill="#333333" fill-opacity="1"><g transform="translate(197.489259, 270.60051)"><g><path d="M 7.28125 -11.5625 C 8.019531 -11.5625 8.707031 -11.40625 9.34375 -11.09375 C 9.988281 -10.789062 10.546875 -10.367188 11.015625 -9.828125 C 11.484375 -9.285156 11.847656 -8.65625 12.109375 -7.9375 C 12.378906 -7.226562 12.515625 -6.460938 12.515625 -5.640625 L 12.515625 0 L 9.453125 0 L 9.453125 -2.0625 C 9.453125 -2.632812 9.457031 -3.226562 9.46875 -3.84375 C 9.476562 -4.457031 9.484375 -4.984375 9.484375 -5.421875 C 9.484375 -5.835938 9.410156 -6.25 9.265625 -6.65625 C 9.128906 -7.070312 8.941406 -7.429688 8.703125 -7.734375 C 8.460938 -8.046875 8.179688 -8.296875 7.859375 -8.484375 C 7.535156 -8.679688 7.191406 -8.78125 6.828125 -8.78125 C 6.472656 -8.78125 6.132812 -8.710938 5.8125 -8.578125 C 5.5 -8.453125 5.222656 -8.265625 4.984375 -8.015625 C 4.742188 -7.765625 4.550781 -7.445312 4.40625 -7.0625 C 4.257812 -6.6875 4.1875 -6.242188 4.1875 -5.734375 L 4.1875 0 L 1.046875 0 L 1.046875 -16.546875 L 4.1875 -16.546875 L 4.1875 -10.390625 C 4.582031 -10.765625 5.03125 -11.050781 5.53125 -11.25 C 6.039062 -11.457031 6.625 -11.5625 7.28125 -11.5625 Z M 7.28125 -11.5625 "/></g></g></g><g fill="#333333" fill-opacity="1"><g transform="translate(211.450787, 270.60051)"><g><path d="M 12.78125 -11.25 L 12.78125 0 L 10.09375 0 L 9.765625 -1.203125 C 9.328125 -0.609375 8.800781 -0.210938 8.1875 -0.015625 C 7.582031 0.171875 6.945312 0.265625 6.28125 0.265625 C 5.476562 0.265625 4.738281 0.113281 4.0625 -0.1875 C 3.394531 -0.5 2.8125 -0.921875 2.3125 -1.453125 C 1.8125 -1.992188 1.421875 -2.625 1.140625 -3.34375 C 0.859375 -4.0625 0.71875 -4.828125 0.71875 -5.640625 C 0.71875 -6.460938 0.859375 -7.226562 1.140625 -7.9375 C 1.421875 -8.65625 1.8125 -9.285156 2.3125 -9.828125 C 2.8125 -10.367188 3.394531 -10.789062 4.0625 -11.09375 C 4.738281 -11.40625 5.476562 -11.5625 6.28125 -11.5625 C 7.007812 -11.5625 7.675781 -11.445312 8.28125 -11.21875 C 8.882812 -10.988281 9.378906 -10.628906 9.765625 -10.140625 L 10.09375 -11.25 Z M 9.65625 -5.59375 C 9.65625 -6.1875 9.578125 -6.679688 9.421875 -7.078125 C 9.265625 -7.484375 9.050781 -7.8125 8.78125 -8.0625 C 8.519531 -8.3125 8.210938 -8.492188 7.859375 -8.609375 C 7.503906 -8.722656 7.117188 -8.78125 6.703125 -8.78125 C 6.296875 -8.78125 5.914062 -8.695312 5.5625 -8.53125 C 5.207031 -8.363281 4.894531 -8.140625 4.625 -7.859375 C 4.351562 -7.578125 4.140625 -7.242188 3.984375 -6.859375 C 3.835938 -6.472656 3.765625 -6.066406 3.765625 -5.640625 C 3.765625 -5.203125 3.835938 -4.796875 3.984375 -4.421875 C 4.140625 -4.046875 4.351562 -3.71875 4.625 -3.4375 C 4.894531 -3.15625 5.207031 -2.929688 5.5625 -2.765625 C 5.914062 -2.597656 6.296875 -2.515625 6.703125 -2.515625 C 7.523438 -2.515625 8.21875 -2.765625 8.78125 -3.265625 C 9.351562 -3.773438 9.644531 -4.550781 9.65625 -5.59375 Z M 9.65625 -5.59375 "/></g></g></g><g fill="#333333" fill-opacity="1"><g transform="translate(226.296223, 270.60051)"><g><path d="M 4.109375 -9.6875 C 4.253906 -9.925781 4.425781 -10.15625 4.625 -10.375 C 4.820312 -10.59375 5.054688 -10.785156 5.328125 -10.953125 C 5.597656 -11.128906 5.90625 -11.269531 6.25 -11.375 C 6.601562 -11.488281 7 -11.546875 7.4375 -11.546875 C 7.945312 -11.546875 8.546875 -11.453125 9.234375 -11.265625 L 8.9375 -8.484375 C 8.769531 -8.515625 8.601562 -8.550781 8.4375 -8.59375 C 8.300781 -8.625 8.148438 -8.648438 7.984375 -8.671875 C 7.816406 -8.691406 7.664062 -8.703125 7.53125 -8.703125 C 7.039062 -8.703125 6.585938 -8.632812 6.171875 -8.5 C 5.753906 -8.363281 5.394531 -8.175781 5.09375 -7.9375 C 4.789062 -7.695312 4.550781 -7.40625 4.375 -7.0625 C 4.195312 -6.71875 4.109375 -6.351562 4.109375 -5.96875 L 4.109375 0 L 0.96875 0 L 0.96875 -11.25 L 3.8125 -11.25 Z M 4.109375 -9.6875 "/></g></g></g><g fill="#333333" fill-opacity="1"><g transform="translate(236.699485, 270.60051)"><g><path d="M 6.578125 -11.5625 C 7.421875 -11.5625 8.191406 -11.390625 8.890625 -11.046875 C 9.585938 -10.710938 10.179688 -10.269531 10.671875 -9.71875 C 11.171875 -9.164062 11.554688 -8.53125 11.828125 -7.8125 C 12.109375 -7.09375 12.25 -6.351562 12.25 -5.59375 C 12.25 -5.144531 12.1875 -4.664062 12.0625 -4.15625 L 4.03125 -4.15625 C 4.332031 -3.632812 4.765625 -3.195312 5.328125 -2.84375 C 5.890625 -2.488281 6.492188 -2.3125 7.140625 -2.3125 C 7.785156 -2.3125 8.351562 -2.363281 8.84375 -2.46875 C 9.34375 -2.570312 9.8125 -2.707031 10.25 -2.875 L 11.296875 -0.953125 C 10.734375 -0.554688 10.09375 -0.253906 9.375 -0.046875 C 8.65625 0.160156 7.890625 0.265625 7.078125 0.265625 C 6.179688 0.265625 5.347656 0.113281 4.578125 -0.1875 C 3.804688 -0.5 3.132812 -0.921875 2.5625 -1.453125 C 1.988281 -1.984375 1.535156 -2.609375 1.203125 -3.328125 C 0.867188 -4.054688 0.703125 -4.828125 0.703125 -5.640625 C 0.703125 -6.441406 0.851562 -7.203125 1.15625 -7.921875 C 1.457031 -8.640625 1.875 -9.265625 2.40625 -9.796875 C 2.945312 -10.335938 3.570312 -10.765625 4.28125 -11.078125 C 4.988281 -11.398438 5.753906 -11.5625 6.578125 -11.5625 Z M 9.140625 -6.578125 C 8.953125 -7.222656 8.625 -7.75 8.15625 -8.15625 C 7.6875 -8.570312 7.160156 -8.78125 6.578125 -8.78125 C 5.972656 -8.78125 5.421875 -8.570312 4.921875 -8.15625 C 4.429688 -7.75 4.097656 -7.222656 3.921875 -6.578125 Z M 9.140625 -6.578125 "/></g></g></g><g fill="#333333" fill-opacity="1"><g transform="translate(109.654587, 284.580727)"><g><path d="M 3.265625 0.109375 C 4.78125 0.109375 5.703125 -0.71875 5.859375 -1.984375 L 4.609375 -1.984375 C 4.484375 -1.265625 3.953125 -0.921875 3.234375 -0.921875 C 2.125 -0.921875 1.515625 -1.78125 1.515625 -3.0625 C 1.515625 -4.3125 2.125 -5.1875 3.234375 -5.1875 C 3.953125 -5.1875 4.5 -4.84375 4.609375 -4.1875 L 5.859375 -4.1875 C 5.703125 -5.390625 4.78125 -6.21875 3.265625 -6.21875 C 1.25 -6.21875 0.3125 -4.75 0.3125 -3.0625 C 0.3125 -1.375 1.25 0.109375 3.265625 0.109375 Z M 3.265625 0.109375 "/></g></g></g><g fill="#333333" fill-opacity="1"><g transform="translate(119.627301, 284.580727)"><g><path d="M 1.5625 0 L 1.5625 -2.078125 C 1.5625 -2.671875 1.6875 -3.03125 1.921875 -3.265625 C 2.109375 -3.4375 2.359375 -3.546875 2.734375 -3.546875 L 2.96875 -3.546875 L 2.96875 -4.578125 L 2.84375 -4.578125 C 2.3125 -4.578125 1.90625 -4.421875 1.5625 -3.953125 L 1.5625 -4.484375 L 0.484375 -4.484375 L 0.484375 0 Z M 1.5625 0 "/></g></g></g><g fill="#333333" fill-opacity="1"><g transform="translate(126.594297, 284.580727)"><g><path d="M 1.03125 -4.984375 C 1.390625 -4.984375 1.703125 -5.21875 1.703125 -5.59375 C 1.703125 -5.953125 1.390625 -6.21875 1.03125 -6.21875 C 0.65625 -6.21875 0.375 -5.953125 0.375 -5.59375 C 0.375 -5.21875 0.65625 -4.984375 1.03125 -4.984375 Z M 1.5625 0 L 1.5625 -4.484375 L 0.484375 -4.484375 L 0.484375 0 Z M 1.5625 0 "/></g></g></g><g fill="#333333" fill-opacity="1"><g transform="translate(132.498105, 284.580727)"><g><path d="M 2.59375 0.09375 C 3.796875 0.09375 4.484375 -0.640625 4.75 -1.515625 L 3.640625 -1.515625 C 3.5 -1.140625 3.140625 -0.84375 2.625 -0.84375 C 2.171875 -0.84375 1.796875 -1.078125 1.59375 -1.5 C 1.515625 -1.625 1.4375 -1.828125 1.421875 -2.03125 L 4.8125 -2.03125 L 4.8125 -2.25 C 4.8125 -3.875 3.71875 -4.578125 2.5625 -4.578125 C 1.03125 -4.578125 0.296875 -3.390625 0.296875 -2.21875 C 0.296875 -0.890625 1.21875 0.09375 2.59375 0.09375 Z M 1.46875 -2.828125 C 1.484375 -2.953125 1.53125 -3.109375 1.640625 -3.25 C 1.859375 -3.5625 2.1875 -3.734375 2.59375 -3.734375 C 2.984375 -3.734375 3.34375 -3.5625 3.546875 -3.25 C 3.65625 -3.109375 3.703125 -2.953125 3.71875 -2.828125 Z M 1.46875 -2.828125 "/></g></g></g><g fill="#333333" fill-opacity="1"><g transform="translate(141.455588, 284.580727)"><g/></g></g><g fill="#333333" fill-opacity="1"><g transform="translate(147.439332, 284.580727)"><g><path d="M 1.703125 0 L 1.703125 -4.375 L 4.1875 0 L 5.5 0 L 5.5 -6.109375 L 4.34375 -6.109375 L 4.34375 -1.734375 L 1.84375 -6.109375 L 0.546875 -6.109375 L 0.546875 0 Z M 1.703125 0 "/></g></g></g><g fill="#333333" fill-opacity="1"><g transform="translate(157.316118, 284.580727)"><g><path d="M 2.59375 0.09375 C 3.96875 0.09375 4.90625 -0.875 4.90625 -2.265625 C 4.90625 -3.625 3.953125 -4.578125 2.59375 -4.578125 C 1.234375 -4.578125 0.296875 -3.625 0.296875 -2.265625 C 0.296875 -0.859375 1.25 0.09375 2.59375 0.09375 Z M 2.59375 -0.84375 C 1.90625 -0.84375 1.40625 -1.421875 1.40625 -2.265625 C 1.40625 -3.078125 1.90625 -3.65625 2.59375 -3.65625 C 3.3125 -3.65625 3.78125 -3.078125 3.78125 -2.265625 C 3.78125 -1.4375 3.296875 -0.84375 2.59375 -0.84375 Z M 2.59375 -0.84375 "/></g></g></g><g fill="#333333" fill-opacity="1"><g transform="translate(166.369527, 284.580727)"><g><path d="M 2.609375 0 L 4.265625 -4.484375 L 3.125 -4.484375 L 2.171875 -1.65625 L 1.25 -4.484375 L 0.09375 -4.484375 L 1.75 0 Z M 2.609375 0 "/></g></g></g><g fill="#333333" fill-opacity="1"><g transform="translate(174.575581, 284.580727)"><g><path d="M 1.78125 0.09375 C 2.171875 0.09375 2.515625 0.03125 2.796875 -0.15625 C 2.96875 -0.265625 3.09375 -0.40625 3.203125 -0.609375 L 3.203125 0 L 4.28125 0 L 4.28125 -2.34375 C 4.28125 -2.953125 4.28125 -3.65625 3.765625 -4.125 C 3.421875 -4.4375 2.921875 -4.578125 2.40625 -4.578125 C 1.515625 -4.578125 0.640625 -4.109375 0.484375 -3.0625 L 1.546875 -3.0625 C 1.625 -3.484375 1.984375 -3.734375 2.390625 -3.734375 C 2.640625 -3.734375 2.859375 -3.65625 2.984375 -3.515625 C 3.125 -3.375 3.203125 -3.15625 3.203125 -2.890625 L 1.875 -2.640625 C 1.5 -2.5625 1.109375 -2.453125 0.828125 -2.25 C 0.515625 -2.046875 0.3125 -1.71875 0.3125 -1.234375 C 0.3125 -0.375 0.9375 0.09375 1.78125 0.09375 Z M 2.046875 -0.765625 C 1.671875 -0.765625 1.390625 -0.9375 1.390625 -1.265625 C 1.390625 -1.421875 1.453125 -1.53125 1.53125 -1.625 C 1.65625 -1.75 1.84375 -1.828125 2.15625 -1.875 L 3.234375 -2.09375 C 3.21875 -1.5 3.09375 -1.125 2.625 -0.890625 C 2.453125 -0.796875 2.25 -0.765625 2.046875 -0.765625 Z M 2.046875 -0.765625 "/></g></g></g><g fill="#333333" fill-opacity="1"><g transform="translate(183.141365, 284.580727)"><g><path d="M 2.4375 0.09375 C 3.59375 0.09375 4.28125 -0.484375 4.28125 -1.359375 C 4.28125 -2.390625 3.3125 -2.5625 2.53125 -2.71875 C 1.96875 -2.828125 1.5 -2.90625 1.5 -3.28125 C 1.5 -3.5625 1.765625 -3.734375 2.1875 -3.734375 C 2.625 -3.734375 3.015625 -3.546875 3.140625 -3.0625 L 4.15625 -3.0625 C 4 -4.03125 3.25 -4.578125 2.203125 -4.578125 C 1.265625 -4.578125 0.46875 -4.171875 0.46875 -3.234375 C 0.46875 -2.234375 1.375 -2.046875 2.15625 -1.890625 C 2.71875 -1.78125 3.21875 -1.6875 3.21875 -1.28125 C 3.21875 -0.9375 2.875 -0.765625 2.421875 -0.765625 C 1.875 -0.765625 1.484375 -1.03125 1.34375 -1.515625 L 0.28125 -1.515625 C 0.4375 -0.390625 1.40625 0.09375 2.4375 0.09375 Z M 2.4375 0.09375 "/></g></g></g><g fill="#333333" fill-opacity="1"><g transform="translate(191.58724, 284.580727)"><g/></g></g><g fill="#333333" fill-opacity="1"><g transform="translate(197.570984, 284.580727)"><g><path d="M 3.265625 0.109375 C 4.78125 0.109375 5.703125 -0.71875 5.859375 -1.984375 L 4.609375 -1.984375 C 4.484375 -1.265625 3.953125 -0.921875 3.234375 -0.921875 C 2.125 -0.921875 1.515625 -1.78125 1.515625 -3.0625 C 1.515625 -4.3125 2.125 -5.1875 3.234375 -5.1875 C 3.953125 -5.1875 4.5 -4.84375 4.609375 -4.1875 L 5.859375 -4.1875 C 5.703125 -5.390625 4.78125 -6.21875 3.265625 -6.21875 C 1.25 -6.21875 0.3125 -4.75 0.3125 -3.0625 C 0.3125 -1.375 1.25 0.109375 3.265625 0.109375 Z M 3.265625 0.109375 "/></g></g></g><g fill="#333333" fill-opacity="1"><g transform="translate(207.5437, 284.580727)"><g><path d="M 2.59375 0.09375 C 3.96875 0.09375 4.90625 -0.875 4.90625 -2.265625 C 4.90625 -3.625 3.953125 -4.578125 2.59375 -4.578125 C 1.234375 -4.578125 0.296875 -3.625 0.296875 -2.265625 C 0.296875 -0.859375 1.25 0.09375 2.59375 0.09375 Z M 2.59375 -0.84375 C 1.90625 -0.84375 1.40625 -1.421875 1.40625 -2.265625 C 1.40625 -3.078125 1.90625 -3.65625 2.59375 -3.65625 C 3.3125 -3.65625 3.78125 -3.078125 3.78125 -2.265625 C 3.78125 -1.4375 3.296875 -0.84375 2.59375 -0.84375 Z M 2.59375 -0.84375 "/></g></g></g><g fill="#333333" fill-opacity="1"><g transform="translate(216.597109, 284.580727)"><g><path d="M 1.5625 0 L 1.5625 -2.28125 C 1.5625 -2.875 1.640625 -3.203125 1.828125 -3.421875 C 1.96875 -3.59375 2.203125 -3.703125 2.515625 -3.703125 C 2.765625 -3.703125 2.953125 -3.625 3.078125 -3.5 C 3.234375 -3.328125 3.296875 -3.0625 3.296875 -2.59375 L 3.296875 0 L 4.375 0 L 4.375 -2.578125 C 4.375 -3.03125 4.375 -3.4375 4.1875 -3.828125 C 3.984375 -4.25 3.609375 -4.578125 2.796875 -4.578125 C 2.3125 -4.578125 1.921875 -4.421875 1.5625 -3.921875 L 1.5625 -4.484375 L 0.484375 -4.484375 L 0.484375 0 Z M 1.5625 0 "/></g></g></g><g fill="#333333" fill-opacity="1"><g transform="translate(225.274806, 284.580727)"><g><path d="M 2.59375 0.09375 C 3.796875 0.09375 4.484375 -0.640625 4.75 -1.515625 L 3.640625 -1.515625 C 3.5 -1.140625 3.140625 -0.84375 2.625 -0.84375 C 2.171875 -0.84375 1.796875 -1.078125 1.59375 -1.5 C 1.515625 -1.625 1.4375 -1.828125 1.421875 -2.03125 L 4.8125 -2.03125 L 4.8125 -2.25 C 4.8125 -3.875 3.71875 -4.578125 2.5625 -4.578125 C 1.03125 -4.578125 0.296875 -3.390625 0.296875 -2.21875 C 0.296875 -0.890625 1.21875 0.09375 2.59375 0.09375 Z M 1.46875 -2.828125 C 1.484375 -2.953125 1.53125 -3.109375 1.640625 -3.25 C 1.859375 -3.5625 2.1875 -3.734375 2.59375 -3.734375 C 2.984375 -3.734375 3.34375 -3.5625 3.546875 -3.25 C 3.65625 -3.109375 3.703125 -2.953125 3.71875 -2.828125 Z M 1.46875 -2.828125 "/></g></g></g><g fill="#333333" fill-opacity="1"><g transform="translate(234.232285, 284.580727)"><g><path d="M 1.34375 0 L 2.3125 -1.53125 L 3.3125 0 L 4.5625 0 L 2.984375 -2.265625 L 4.5625 -4.484375 L 3.3125 -4.484375 L 2.3125 -2.984375 L 1.34375 -4.484375 L 0.09375 -4.484375 L 1.640625 -2.265625 L 0.109375 0 Z M 1.34375 0 "/></g></g></g><g fill="#333333" fill-opacity="1"><g transform="translate(242.726124, 284.580727)"><g><path d="M 3.140625 -4.84375 C 3.75 -4.84375 4.015625 -5.265625 4.0625 -6.109375 L 3.40625 -6.109375 C 3.375 -5.71875 3.28125 -5.546875 3.15625 -5.546875 C 2.875 -5.546875 2.6875 -6.140625 2.078125 -6.140625 C 1.515625 -6.140625 1.15625 -5.640625 1.125 -4.859375 L 1.765625 -4.859375 C 1.78125 -5.234375 1.875 -5.4375 2.046875 -5.4375 C 2.328125 -5.4375 2.46875 -4.84375 3.140625 -4.84375 Z M 2.59375 0.09375 C 3.96875 0.09375 4.90625 -0.875 4.90625 -2.265625 C 4.90625 -3.625 3.953125 -4.578125 2.59375 -4.578125 C 1.234375 -4.578125 0.296875 -3.625 0.296875 -2.265625 C 0.296875 -0.859375 1.25 0.09375 2.59375 0.09375 Z M 2.59375 -0.84375 C 1.90625 -0.84375 1.40625 -1.421875 1.40625 -2.265625 C 1.40625 -3.078125 1.90625 -3.65625 2.59375 -3.65625 C 3.3125 -3.65625 3.78125 -3.078125 3.78125 -2.265625 C 3.78125 -1.4375 3.296875 -0.84375 2.59375 -0.84375 Z M 2.59375 -0.84375 "/></g></g></g><g fill="#333333" fill-opacity="1"><g transform="translate(251.779527, 284.580727)"><g><path d="M 2.59375 0.09375 C 3.796875 0.09375 4.484375 -0.640625 4.75 -1.515625 L 3.640625 -1.515625 C 3.5 -1.140625 3.140625 -0.84375 2.625 -0.84375 C 2.171875 -0.84375 1.796875 -1.078125 1.59375 -1.5 C 1.515625 -1.625 1.4375 -1.828125 1.421875 -2.03125 L 4.8125 -2.03125 L 4.8125 -2.25 C 4.8125 -3.875 3.71875 -4.578125 2.5625 -4.578125 C 1.03125 -4.578125 0.296875 -3.390625 0.296875 -2.21875 C 0.296875 -0.890625 1.21875 0.09375 2.59375 0.09375 Z M 1.46875 -2.828125 C 1.484375 -2.953125 1.53125 -3.109375 1.640625 -3.25 C 1.859375 -3.5625 2.1875 -3.734375 2.59375 -3.734375 C 2.984375 -3.734375 3.34375 -3.5625 3.546875 -3.25 C 3.65625 -3.109375 3.703125 -2.953125 3.71875 -2.828125 Z M 1.46875 -2.828125 "/></g></g></g><g fill="#333333" fill-opacity="1"><g transform="translate(260.737012, 284.580727)"><g><path d="M 2.4375 0.09375 C 3.59375 0.09375 4.28125 -0.484375 4.28125 -1.359375 C 4.28125 -2.390625 3.3125 -2.5625 2.53125 -2.71875 C 1.96875 -2.828125 1.5 -2.90625 1.5 -3.28125 C 1.5 -3.5625 1.765625 -3.734375 2.1875 -3.734375 C 2.625 -3.734375 3.015625 -3.546875 3.140625 -3.0625 L 4.15625 -3.0625 C 4 -4.03125 3.25 -4.578125 2.203125 -4.578125 C 1.265625 -4.578125 0.46875 -4.171875 0.46875 -3.234375 C 0.46875 -2.234375 1.375 -2.046875 2.15625 -1.890625 C 2.71875 -1.78125 3.21875 -1.6875 3.21875 -1.28125 C 3.21875 -0.9375 2.875 -0.765625 2.421875 -0.765625 C 1.875 -0.765625 1.484375 -1.03125 1.34375 -1.515625 L 0.28125 -1.515625 C 0.4375 -0.390625 1.40625 0.09375 2.4375 0.09375 Z M 2.4375 0.09375 "/></g></g></g><path fill="#80cc28" d="M 248.132812 146.867188 L 227.183594 125.933594 L 235.203125 116.179688 C 191.578125 117.964844 174.074219 136.503906 174.074219 136.503906 C 230.757812 114.800781 248.503906 164.808594 248.503906 164.808594 L 248.132812 146.867188 " fill-opacity="1" fill-rule="nonzero"/><path fill="#80cc28" d="M 237.214844 130.003906 C 239.46875 133.890625 244.457031 135.222656 248.355469 132.976562 C 252.257812 130.734375 253.59375 125.765625 251.339844 121.882812 C 249.089844 117.996094 244.101562 116.664062 240.199219 118.910156 C 236.300781 121.152344 234.964844 126.121094 237.214844 130.003906 " fill-opacity="1" fill-rule="nonzero"/><path fill="#e81067" d="M 232.179688 206.609375 L 239.910156 178.074219 L 252.402344 180.113281 C 229.035156 143.382812 204.164062 137.550781 204.164062 137.550781 C 251.375 175.59375 216.769531 215.902344 216.769531 215.902344 L 232.179688 206.609375 " fill-opacity="1" fill-rule="nonzero"/><g clip-path="url(#df755dd53a)"><path fill="#e81067" d="M 241.386719 188.761719 C 239.132812 192.648438 240.472656 197.617188 244.371094 199.859375 C 248.273438 202.101562 253.261719 200.769531 255.511719 196.886719 C 257.765625 193 256.429688 188.035156 252.527344 185.789062 C 248.628906 183.546875 243.640625 184.878906 241.386719 188.761719 " fill-opacity="1" fill-rule="nonzero"/></g><path fill="#f68712" d="M 172.257812 222.722656 L 200.933594 215.125 L 205.40625 226.914062 C 225.664062 188.398438 218.296875 164.027344 218.296875 164.027344 C 208.828125 223.769531 156.472656 214.074219 156.472656 214.074219 L 172.257812 222.722656 " fill-opacity="1" fill-rule="nonzero"/><g clip-path="url(#cb427dc38b)"><path fill="#f68712" d="M 192.378906 221.742188 C 187.875 221.742188 184.222656 225.378906 184.222656 229.863281 C 184.222656 234.347656 187.875 237.984375 192.378906 237.984375 C 196.882812 237.984375 200.535156 234.347656 200.535156 229.863281 C 200.535156 225.378906 196.882812 221.742188 192.378906 221.742188 " fill-opacity="1" fill-rule="nonzero"/></g><path fill="#ed1c24" d="M 128.285156 179.09375 L 149.230469 200.03125 L 141.214844 209.78125 C 184.835938 207.996094 202.34375 189.457031 202.34375 189.457031 C 145.65625 211.160156 127.910156 161.15625 127.910156 161.15625 L 128.285156 179.09375 " fill-opacity="1" fill-rule="nonzero"/><path fill="#ed1c24" d="M 139.199219 195.957031 C 136.945312 192.074219 131.960938 190.742188 128.058594 192.984375 C 124.15625 195.226562 122.820312 200.195312 125.074219 204.082031 C 127.324219 207.964844 132.3125 209.296875 136.214844 207.054688 C 140.117188 204.8125 141.453125 199.84375 139.199219 195.957031 " fill-opacity="1" fill-rule="nonzero"/><path fill="#1b619a" d="M 144.234375 119.351562 L 136.503906 147.886719 L 124.015625 145.847656 C 147.378906 182.582031 172.25 188.414062 172.25 188.414062 C 125.039062 150.371094 159.648438 110.0625 159.648438 110.0625 L 144.234375 119.351562 " fill-opacity="1" fill-rule="nonzero"/><path fill="#1b619a" d="M 135.027344 137.199219 C 137.28125 133.316406 135.945312 128.347656 132.042969 126.105469 C 128.140625 123.859375 123.152344 125.191406 120.902344 129.078125 C 118.648438 132.960938 119.988281 137.929688 123.886719 140.171875 C 127.789062 142.417969 132.777344 141.085938 135.027344 137.199219 " fill-opacity="1" fill-rule="nonzero"/><path fill="#00adef" d="M 204.160156 103.242188 L 175.480469 110.839844 L 171.007812 99.046875 C 150.75 137.566406 158.117188 161.933594 158.117188 161.933594 C 167.589844 102.191406 219.945312 111.886719 219.945312 111.886719 L 204.160156 103.242188 " fill-opacity="1" fill-rule="nonzero"/><g clip-path="url(#8b15f1510d)"><path fill="#00adef" d="M 184.035156 104.222656 C 188.539062 104.222656 192.191406 100.585938 192.191406 96.101562 C 192.191406 91.613281 188.539062 87.976562 184.035156 87.976562 C 179.53125 87.976562 175.878906 91.613281 175.878906 96.101562 C 175.878906 100.585938 179.53125 104.222656 184.035156 104.222656 " fill-opacity="1" fill-rule="nonzero"/></g></svg>